<svg width="800" height="800" viewBox="0 0 800 800" fill="none" xmlns="http://www.w3.org/2000/svg">
<rect width="800" height="800" rx="120" fill="#3A8BED"/>
<path d="M487.017 326.033L491.267 330.283C524.288 363.305 540.8 379.817 540.8 400.333C540.8 420.85 524.288 437.362 491.267 470.383L487.017 474.633" stroke="white" stroke-width="50" stroke-linecap="round"/>
<path d="M432.379 280.72L400.328 400.333L368.28 519.949" stroke="white" stroke-width="50" stroke-linecap="round"/>
<path d="M313.655 326.033L309.405 330.283C276.383 363.305 259.872 379.817 259.872 400.333C259.872 420.85 276.383 437.362 309.405 470.383L313.655 474.633" stroke="white" stroke-width="50" stroke-linecap="round"/>
<path d="M152.667 400.333C152.667 283.582 152.667 225.206 188.937 188.937C225.206 152.667 283.582 152.667 400.333 152.667C517.083 152.667 575.461 152.667 611.729 188.937C648 225.206 648 283.582 648 400.333C648 517.083 648 575.461 611.729 611.729C575.461 648 517.083 648 400.333 648C283.582 648 225.206 648 188.937 611.729C152.667 575.461 152.667 517.083 152.667 400.333Z" stroke="white" stroke-width="50"/>
</svg>
