<svg width="800" height="800" viewBox="0 0 800 800" fill="none" xmlns="http://www.w3.org/2000/svg">
<g clip-path="url(#clip0_7_2)">
<path d="M336.75 762.4C276.117 762.4 222.85 750.5 176.95 726.7C131.05 702.9 95.35 668.9 69.85 624.7C44.35 581.067 31.6 529.217 31.6 469.15C31.6 408.517 41.8 352.417 62.2 300.85C83.1667 248.717 112.35 203.383 149.75 164.85C187.15 125.75 231.633 95.4333 283.2 73.9C335.333 51.8 392.567 40.75 454.9 40.75C518.367 40.75 573.333 52.9333 619.8 77.3C666.833 101.667 703.1 135.667 728.6 179.3C754.667 222.367 767.7 272.517 767.7 329.75C767.7 363.183 763.733 395.483 755.8 426.65C747.867 457.817 735.967 486.15 720.1 511.65C704.233 536.583 684.683 556.7 661.45 572C638.783 586.733 612.717 594.1 583.25 594.1C547.55 594.1 521.483 583.333 505.05 561.8C489.183 540.267 483.517 512.217 488.05 477.65L490.6 449.6L505.9 481.9C491.733 516.467 469.35 543.95 438.75 564.35C408.717 584.183 375.85 594.1 340.15 594.1C297.65 594.1 264.5 581.067 240.7 555C216.9 528.933 205 493.8 205 449.6C205 418.433 209.817 388.683 219.45 360.35C229.083 332.017 242.683 306.8 260.25 284.7C278.383 262.033 299.633 244.183 324 231.15C348.367 218.117 375.567 211.6 405.6 211.6C439.6 211.6 466.517 220.667 486.35 238.8C506.183 256.367 518.083 282.15 522.05 316.15L504.2 327.2L523.75 220.1H594.3L552.65 458.1C548.683 481.333 549.533 500.317 555.2 515.05C561.433 529.217 574.75 536.3 595.15 536.3C612.717 536.3 628.017 530.067 641.05 517.6C654.083 505.133 664.85 488.983 673.35 469.15C682.417 448.75 689.217 426.65 693.75 402.85C698.283 379.05 700.55 355.817 700.55 333.15C700.55 284.417 690.067 242.767 669.1 208.2C648.7 173.633 619.517 147 581.55 128.3C543.583 109.033 498.25 99.4 445.55 99.4C394.55 99.4 347.8 108.75 305.3 127.45C263.367 146.15 226.817 172.217 195.65 205.65C165.05 238.517 141.25 277.05 124.25 321.25C107.25 364.883 98.75 411.917 98.75 462.35C98.75 513.35 108.667 556.7 128.5 592.4C148.9 628.667 177.8 655.867 215.2 674C253.167 692.7 297.933 702.05 349.5 702.05C374.433 702.05 399.083 699.5 423.45 694.4C448.383 689.867 471.333 682.783 492.3 673.15L505.9 730.1C480.4 740.867 453.2 748.8 424.3 753.9C395.967 759.567 366.783 762.4 336.75 762.4ZM365.65 530.35C388.317 530.35 408.717 524.4 426.85 512.5C445.55 500.033 460.85 483.033 472.75 461.5C485.217 439.4 492.867 414.183 495.7 385.85C497.4 365.45 495.417 347.033 489.75 330.6C484.083 313.6 474.45 300.283 460.85 290.65C447.817 280.45 430.817 275.35 409.85 275.35C390.017 275.35 372.167 279.883 356.3 288.95C340.433 298.017 326.833 310.2 315.5 325.5C304.733 340.8 296.233 358.083 290 377.35C284.333 396.617 281.5 416.167 281.5 436C281.5 464.333 288.583 487.283 302.75 504.85C316.917 521.85 337.883 530.35 365.65 530.35Z" fill="#888885"/>
</g>
<defs>
<clipPath id="clip0_7_2">
<rect width="800" height="800" fill="white"/>
</clipPath>
</defs>
</svg>
