<svg width="802" height="802" viewBox="0 0 802 802" fill="none" xmlns="http://www.w3.org/2000/svg">
<path d="M339.127 580.937C235.744 568.404 162.906 493.984 162.906 397.631C162.906 358.463 177.004 316.161 200.5 287.96C190.318 262.109 191.884 207.274 203.633 184.557C234.961 180.639 277.254 197.09 302.316 219.807C332.078 210.407 363.406 205.707 401.783 205.707C440.16 205.707 471.488 210.407 499.684 219.024C523.962 197.09 567.039 180.639 598.367 184.557C609.332 205.707 610.898 260.542 600.716 287.176C625.779 316.944 639.094 356.896 639.094 397.631C639.094 493.984 566.255 566.837 461.306 580.154C487.935 597.388 505.949 634.989 505.949 678.074V759.546C505.949 783.042 525.529 796.361 549.025 786.961C690.785 732.907 802 591.121 802 415.648C802 193.957 621.863 13 400.216 13C178.57 13 0 193.956 0 415.648C0 589.554 110.431 733.693 259.24 787.747C280.387 795.576 300.75 781.48 300.75 760.331V697.658C289.785 702.358 275.688 705.491 263.156 705.491C211.465 705.491 180.92 677.29 158.99 624.806C150.375 603.655 140.977 591.121 122.962 588.771C113.564 587.987 110.431 584.071 110.431 579.371C110.431 569.97 126.095 562.92 141.759 562.92C164.473 562.92 184.052 577.02 204.416 606.005C220.08 628.722 236.527 638.906 256.107 638.906C275.688 638.906 288.219 631.856 306.232 613.839C319.547 600.521 329.728 588.771 339.127 580.937Z" fill="#888885"/>
</svg>
