<svg width="800" height="800" viewBox="0 0 800 800" fill="none" xmlns="http://www.w3.org/2000/svg">
<path d="M753 0L688.682 719.918L399.568 800L111.252 720.028L47 0H753Z" fill="#E44D26"/>
<path d="M399 739L632.959 674.281L688 59H399V739Z" fill="#F16529"/>
<path d="M274.32 235.472H399V147H178L180.108 170.735L201.772 414.541H399V326.069H282.375L274.32 235.472ZM294.183 458.778H205.71L218.056 597.693L398.594 648L399 647.889V555.841L398.614 555.943L300.459 529.338L294.183 458.778Z" fill="#EBEBEB"/>
<path d="M399.003 414.563H508.131L497.842 529.315L399 555.949V648L580.681 597.73L582.013 582.781L602.841 349.843L605.003 326.084H399.003V414.563ZM399.003 235.263V235.479H613.067L614.843 215.593L618.883 170.737L621 147H399.003V235.263Z" fill="white"/>
</svg>
