<svg width="800" height="800" viewBox="0 0 800 800" fill="none" xmlns="http://www.w3.org/2000/svg">
<rect width="800" height="800" rx="120" fill="#6366F1"/>
<path d="M158 401.601H643M400.5 293.89V401.601M252.306 401.601V509.313M548.694 401.601V509.313M349.306 293.89H451.694C466.786 293.89 474.33 293.89 480.094 290.955C485.165 288.373 489.285 284.253 491.869 279.187C494.806 273.427 494.806 265.886 494.806 250.805V202.335C494.806 187.254 494.806 179.713 491.869 173.953C442.123 112.227 349.306 118.557 309.131 173.953C306.194 178.002 306.194 187.254 306.194 202.335V250.805C306.194 265.886 306.194 273.427 309.131 279.187C311.715 284.253 315.837 288.373 320.906 290.955C326.67 293.89 334.215 293.89 349.306 293.89ZM640.063 629.25C643 623.49 643 615.95 643 600.868V552.398C643 537.315 643 529.776 640.063 524.016C637.479 518.948 633.359 514.831 628.288 512.248C622.525 509.313 614.98 509.313 599.889 509.313H497.5C482.408 509.313 474.864 509.313 469.101 512.248C464.03 514.831 459.91 518.948 457.326 524.016C454.389 529.776 454.389 537.315 454.389 552.398V600.868C454.389 615.95 454.389 623.49 457.326 629.25C490.985 687.359 611.783 679.672 640.063 629.25ZM343.674 629.25C346.611 623.49 346.611 615.95 346.611 600.868V552.398C346.611 537.315 346.611 529.776 343.674 524.016C341.091 518.948 336.969 514.831 331.899 512.248C326.135 509.313 318.59 509.313 303.5 509.313H201.111C186.021 509.313 178.476 509.313 172.712 512.248C167.642 514.831 163.52 518.948 160.937 524.016C158 529.776 158 537.315 158 552.398V600.868C158 615.95 158 623.49 160.937 629.25C180.169 671.986 311.372 683.289 343.674 629.25Z" stroke="white" stroke-width="46" stroke-linecap="round" stroke-linejoin="round"/>
</svg>
