<svg width="800" height="800" viewBox="0 0 800 800" fill="none" xmlns="http://www.w3.org/2000/svg">
<mask id="mask0_10_30" style="mask-type:luminance" maskUnits="userSpaceOnUse" x="58" y="0" width="703" height="800">
<path d="M390.493 5.06073L76.9481 186.036C65.2041 192.808 58 205.311 58 218.827V581.03C58 594.553 65.2041 607.048 76.9481 613.821L390.516 794.937C402.237 801.688 416.69 801.688 428.397 794.937L741.913 613.821C753.597 607.048 760.816 594.545 760.816 581.03V218.827C760.816 205.311 753.597 192.808 741.838 186.036L428.367 5.06073C422.488 1.68935 415.939 0 409.389 0C402.84 0 396.291 1.68935 390.412 5.06073" fill="white"/>
</mask>
<g mask="url(#mask0_10_30)">
<path d="M1077.67 155.306L194.15 -277.763L-258.864 646.381L624.629 1079.47L1077.67 155.306Z" fill="url(#paint0_linear_10_30)"/>
</g>
<mask id="mask1_10_30" style="mask-type:luminance" maskUnits="userSpaceOnUse" x="65" y="1" width="686" height="799">
<path d="M65.7703 604.027C68.7695 607.919 72.5205 611.291 76.9338 613.821L345.899 769.18L390.702 794.93C397.4 798.8 405.036 800.437 412.538 799.879C415.039 799.678 417.539 799.209 419.98 798.517L750.673 193.009C748.142 190.256 745.18 187.949 741.861 186.014L536.557 67.4573L428.033 5.0162C424.952 3.23004 421.61 1.96486 418.209 1.07178L65.7703 604.027Z" fill="white"/>
</mask>
<g mask="url(#mask1_10_30)">
<path d="M-316.229 283.396L307.624 1127.75L1132.68 518.179L508.79 -326.153L-316.229 283.396Z" fill="url(#paint1_linear_10_30)"/>
</g>
<mask id="mask2_10_30" style="mask-type:luminance" maskUnits="userSpaceOnUse" x="77" y="0" width="684" height="800">
<path d="M405.647 0.208522C400.385 0.729485 395.243 2.36674 390.502 5.06087L77.8495 185.515L414.987 799.581C419.676 798.912 424.29 797.349 428.458 794.937L742.003 613.821C751.678 608.209 758.302 598.713 760.311 587.951L416.624 0.82618C414.094 0.327544 411.564 0.0671387 408.959 0.0671387C407.917 0.0671387 406.875 0.119153 405.833 0.215903" fill="white"/>
</mask>
<g mask="url(#mask2_10_30)">
<path d="M77.8419 0.0671387V799.596H760.177V0.0671387H77.8419Z" fill="url(#paint2_linear_10_30)"/>
</g>
<defs>
<linearGradient id="paint0_linear_10_30" x1="635.643" y1="-61.9091" x2="182.66" y2="862.173" gradientUnits="userSpaceOnUse">
<stop offset="0.3" stop-color="#3E863D"/>
<stop offset="0.5" stop-color="#55934F"/>
<stop offset="0.8" stop-color="#5AAD45"/>
</linearGradient>
<linearGradient id="paint1_linear_10_30" x1="-0.563891" y1="710.413" x2="824.525" y2="100.771" gradientUnits="userSpaceOnUse">
<stop offset="0.57" stop-color="#3E863D"/>
<stop offset="0.72" stop-color="#619857"/>
<stop offset="1" stop-color="#76AC64"/>
</linearGradient>
<linearGradient id="paint2_linear_10_30" x1="78.0721" y1="399.854" x2="760.306" y2="399.854" gradientUnits="userSpaceOnUse">
<stop offset="0.16" stop-color="#6BBF47"/>
<stop offset="0.38" stop-color="#79B461"/>
<stop offset="0.47" stop-color="#75AC64"/>
<stop offset="0.7" stop-color="#659E5A"/>
<stop offset="0.9" stop-color="#3E863D"/>
</linearGradient>
</defs>
</svg>
