<svg width="800" height="800" viewBox="0 0 800 800" fill="none" xmlns="http://www.w3.org/2000/svg">
<rect width="800" height="800" rx="120" fill="#EC4899"/>
<path d="M399.889 495.722C439.745 495.722 472.055 463.412 472.055 423.556C472.055 383.699 439.745 351.389 399.889 351.389C360.032 351.389 327.722 383.699 327.722 423.556C327.722 463.412 360.032 495.722 399.889 495.722Z" stroke="white" stroke-width="50"/>
<path d="M346.432 616H453.345C528.425 616 565.964 616 592.93 598.309C604.602 590.65 614.626 580.809 622.427 569.349C640.444 542.873 640.444 506.016 640.444 432.302C640.444 358.591 640.444 321.733 622.427 295.258C614.626 283.796 604.602 273.955 592.93 266.297C575.6 254.929 553.909 250.866 520.696 249.414C504.846 249.414 491.201 237.622 488.093 222.364C483.429 199.475 462.96 183 439.188 183H360.589C336.816 183 316.348 199.475 311.685 222.364C308.577 237.622 294.931 249.414 279.082 249.414C245.869 250.866 224.176 254.929 206.849 266.297C195.175 273.955 185.152 283.796 177.351 295.258C159.333 321.733 159.333 358.591 159.333 432.302C159.333 506.016 159.333 542.873 177.351 569.349C185.152 580.809 195.175 590.65 206.849 598.309C233.815 616 271.354 616 346.432 616Z" stroke="white" stroke-width="50"/>
<path d="M568.278 351.389H544.222" stroke="white" stroke-width="50" stroke-linecap="round"/>
</svg>
