<svg width="800" height="800" viewBox="0 0 800 800" fill="none" xmlns="http://www.w3.org/2000/svg">
<g clip-path="url(#clip0_1_6)">
<path d="M721.875 0H78.125C34.9778 0 0 34.9778 0 78.125V721.875C0 765.022 34.9778 800 78.125 800H721.875C765.022 800 800 765.022 800 721.875V78.125C800 34.9778 765.022 0 721.875 0Z" fill="#3178C6"/>
<path d="M721.875 0H78.125C34.9778 0 0 34.9778 0 78.125V721.875C0 765.022 34.9778 800 78.125 800H721.875C765.022 800 800 765.022 800 721.875V78.125C800 34.9778 765.022 0 721.875 0Z" fill="#3178C6"/>
<path fill-rule="evenodd" clip-rule="evenodd" d="M495.217 636.6V714.82C507.933 721.339 522.972 726.227 540.334 729.486C557.697 732.745 575.995 734.375 595.233 734.375C613.981 734.375 631.791 732.583 648.664 728.997C665.537 725.413 680.333 719.505 693.048 711.275C705.764 703.047 715.831 692.291 723.248 679.009C730.666 665.728 734.375 649.311 734.375 629.756C734.375 615.578 732.256 603.153 728.017 592.48C723.778 581.806 717.666 572.314 709.677 564.003C701.689 555.692 692.111 548.236 680.944 541.636C669.777 535.036 657.183 528.803 643.162 522.937C632.892 518.7 623.681 514.586 615.53 510.594C607.378 506.6 600.45 502.527 594.744 498.372C589.037 494.216 584.636 489.816 581.539 485.172C578.442 480.527 576.892 475.272 576.892 469.405C576.892 464.028 578.278 459.18 581.05 454.861C583.822 450.542 587.734 446.836 592.788 443.739C597.842 440.644 604.036 438.239 611.372 436.528C618.709 434.817 626.859 433.962 635.827 433.962C642.347 433.962 649.234 434.452 656.489 435.428C663.744 436.406 671.039 437.914 678.377 439.95C685.713 441.987 692.844 444.555 699.773 447.65C706.702 450.747 713.1 454.331 718.969 458.406V385.319C707.069 380.756 694.067 377.375 679.966 375.175C665.864 372.975 649.683 371.875 631.425 371.875C612.839 371.875 595.233 373.872 578.605 377.864C561.977 381.856 547.345 388.089 534.709 396.563C522.075 405.038 512.091 415.833 504.755 428.952C497.419 442.069 493.75 457.753 493.75 476.005C493.75 499.308 500.475 519.189 513.925 535.648C527.373 552.106 547.792 566.039 575.181 577.447C585.941 581.847 595.967 586.164 605.259 590.402C614.552 594.639 622.581 599.039 629.345 603.602C636.111 608.164 641.45 613.134 645.364 618.512C649.277 623.889 651.233 630 651.233 636.845C651.233 641.897 650.009 646.581 647.564 650.9C645.119 655.219 641.409 658.966 636.438 662.144C631.466 665.322 625.27 667.806 617.853 669.598C610.434 671.392 601.755 672.288 591.809 672.288C574.855 672.288 558.064 669.314 541.434 663.366C524.806 657.419 509.4 648.497 495.217 636.6ZM363.719 443.878H464.062V379.688H184.375V443.878H284.228V729.688H363.719V443.878Z" fill="white"/>
</g>
<rect x="0.5" y="0.5" width="799" height="799" rx="119.5" stroke="black"/>
<defs>
<clipPath id="clip0_1_6">
<rect width="800" height="800" rx="120" fill="white"/>
</clipPath>
</defs>
</svg>
